<?xml version="1.0" standalone="no"?>
<!DOCTYPE svg PUBLIC "-//W3C//DTD SVG 1.1//EN" "http://www.w3.org/Graphics/SVG/1.1/DTD/svg11.dtd">
<svg xmlns="http://www.w3.org/2000/svg">
  <defs>
    <font id="Cabin" horiz-adv-x="958">
      <font-face font-family="Cabin" units-per-em="2000" panose-1="0 0 0 0 0 0 0 0 0 0" ascent="1930" descent="-500" alphabetic="0" />
      <glyph unicode=" " glyph-name="gid203" horiz-adv-x="432" />
      <glyph unicode="!" glyph-name="gid170" horiz-adv-x="418" d="M90,414l10,58l142,928H490L304,472l-10-58H90ZM-12,0L36,272H296L248,0H-12Z" />
      <glyph unicode="&quot;" glyph-name="gid176" horiz-adv-x="680" d="M120,1000l32,400H400L288,1000H120Zm340,0l32,400H740L628,1000H460Z" />
      <glyph unicode="#" glyph-name="gid172" horiz-adv-x="1376" d="M22-22L796,1400H980L206-22H22Zm396,0l774,1422h184L602-22H418ZM248,828l98,196H1386L1284,828H248ZM39,428L157,624H1197L1075,428H39Z" />
      <glyph unicode="$" glyph-name="gid210" horiz-adv-x="1136" d="M544,68L502-288H306L388,68H544ZM652,1346l40,342H888l-80-342H652ZM426-28Q282-28 171,3T-20,74L60,366q63-55 163-101.5T456,218q79,0 137,16.5t89.5,54T714,388q0,60-28.5,99.5t-87.5,70T448,620q-79,28-140.5,59.5T204.5,753t-63,100T120,992q0,95 38,174.5t108.5,138t169.5,91T656,1428q150,0 265-36t175-72l-72-262q-103,62-192,94t-196,32q-69,0-126-16t-90.5-52T386,1020q0-76 66-113.5T620,834q70-24 138.5-52.5t125-71.5T974,602.5T1008,442q0-82-29.5-165.5t-97-152T702,14T426-28Z" />
      <glyph unicode="%" glyph-name="gid226" horiz-adv-x="1766" d="M340,628q-139,0-209.5,84T60,932q0,129 52,242.5T258.5,1358T480,1428q132,0 207-79.5T762,1132q0-100-30.5-190.5t-86-161T512.5,669T340,628Zm30,174q62,0 104,50.5T537,975t21,137q0,72-28.5,107T450,1254q-65,0-106-50.5T283.5,1080T264,940t26-102.5T370,802ZM230,0L1304,1400h198L430,0H230ZM1244-28q-139,0-209.5,84T964,276q0,129 52,242.5T1162.5,702T1384,772q132,0 207-79.5T1666,476q0-100-30.5-190.5t-86-161T1416.5,13T1244-28Zm30,174q62,0 104,50.5T1441,319t21,137q0,72-28.5,107T1354,598q-65,0-106-50.5T1187.5,424T1168,284t26-102.5t80-35.5Z" />
      <glyph unicode="&amp;" glyph-name="gid228" horiz-adv-x="1210" d="M820,0L755,100l-59,80L413,613L335,721q-36,65-66.5,144T238,1026q0,89 39.5,159.5T383,1305t146.5,75T692,1406q131,0 199.5-64.5T960,1166q0-80-32.5-143.5T842.5,908t-114-93.5T609,734L525,853q56,40 103.5,80t76.5,85.5T734,1120q0,50-22.5,69T648,1208q-66,0-114-43.5T486,1038q0-46 17-91.5T549,847l65-91L826,408L939,253L1112,0H820ZM938,225L813,406q12,37 21,75.5T850.5,558T865,633t13,71h240q-9-59-30-140t-57-169T938,225ZM406-48Q269-48 183.5-3.5T58,115.5T18,280q0,109 48.5,193T189,622.5T341,743l93-131q-66-65-108-137.5T284,316q0-45 16-84.5T357,167t117-25q68,0 120.5,21T687,220L787,77Q717,21 621.5-13.5T406-48Z" />
      <glyph unicode="&apos;" glyph-name="gid177" horiz-adv-x="340" d="M120,1000l32,400H400L288,1000H120Z" />
      <glyph unicode="(" glyph-name="gid187" horiz-adv-x="662" d="M238-272Q172-131 135.5,9.5T100,328q1,338 118,627.5T540,1500H762q-134-176-228-377.5T391,708T342,284q0-169 31-305.5T450-272H238Z" />
      <glyph unicode=")" glyph-name="gid188" horiz-adv-x="662" d="M424,1500q66-141 102.5-281.5T562,900q-1-338-118-627.5T122-272H-100Q34-96 128,105.5T271,520t49,424q0,169-31,305.5T212,1500H424Z" />
      <glyph unicode="*" glyph-name="gid163" horiz-adv-x="854" d="M390,1111L146,1272l106,124l332-271l12,6L852,966L748,842L402,1115l-12-4ZM498,724H348l80,351l60,435H638l-86-405L498,724ZM390,1119l444,277l60-126L612,1116l-12,5L154,848L92,974l286,152l12-7Z" />
      <glyph unicode="+" glyph-name="gid215" horiz-adv-x="860" d="M220,192L348,916H552L424,192H220ZM12,460L44,648H760L728,460H12Z" />
      <glyph unicode="," glyph-name="gid168" horiz-adv-x="400" d="M60-240H-56L74,0H-28L20,272H280L236,24L60-240Z" />
      <glyph unicode="-" glyph-name="gid191" horiz-adv-x="818" d="M88,528l36,188H718L684,528H88Z" />
      <glyph unicode="." glyph-name="gid173" horiz-adv-x="400" d="M-28,0L20,272H280L232,0H-28Z" />
      <glyph unicode="/" glyph-name="gid179" horiz-adv-x="702" d="M-80-170L724,1400H982L178-170H-80Z" />
      <glyph unicode="0" glyph-name="gid126" horiz-adv-x="1382" d="M542-28Q396-28 291.5,39t-160,190T76,520q0,174 51,336.5T273.5,1148T502,1352.5T798,1428q148,0 252.5-66.5t160-187T1266,892q0-174-51.5-338.5T1067,258T838,49.5T542-28Zm40,230q106,0 185.5,62t133,163T981,645.5T1008,874q0,167-69.5,247.5T758,1202q-107,0-187-60.5t-133-159T358.5,766T332,532q0-172 69.5-251T582,202Z" />
      <glyph unicode="1" glyph-name="gid127" horiz-adv-x="726" d="M134,0L338,1151l44-72q-38-26-78.5-49t-84-39T128,966l16,216q45,9 104,43t112.5,80.5T442,1400H638L390,0H134Z" />
      <glyph unicode="2" glyph-name="gid128" horiz-adv-x="1040" d="M-60,0L408,566q86,104 146.5,182.5t93,145.5T680,1028q0,75-39,117.5T530,1188q-100,0-186.5-49T168,1018l14,258q99,72 204.5,112T616,1428q165,0 244.5-91T940,1114q0-122-53-235T748.5,656T566,434L323,153l-40,87H850L808,0H-60Z" />
      <glyph unicode="3" glyph-name="gid129" horiz-adv-x="1048" d="M360-28Q234-28 130,5T-60,92L40,308q69-51 151-83.5T366,192q113,0 184,58.5T622,422q1,95-56,141.5T398,610H274l42,240H436q119,0 191.5,56.5T700,1054q0,69-46.5,111.5T520,1208q-84,0-165.5-28.5T190,1104l2,226q77,41 176.5,69.5T582,1428q176,0 271-88.5T948,1110q0-93-43.5-172T783,803.5T602,726l6,46q125-25 198.5-112T880,430q0-140-69.5-243T623,28T360-28Z" />
      <glyph unicode="4" glyph-name="gid130" horiz-adv-x="1182" d="M590,0L788,1124l56-72L312,444l-38,84h807l-38-208H-52L902,1400h174L828,0H590Z" />
      <glyph unicode="5" glyph-name="gid131" horiz-adv-x="1014" d="M324-26Q201-26 107.5,5T-60,90L58,306q62-45 131-73.5T342,204q76,0 138,30.5t99,87T616,456q0,101-62.5,157.5T366,670q-64,0-131.5-7T102,642l224,758H974l-60-248H359l149,110L354,764l-76,88q45,14 93,21t103,7q180,0 288-100.5T870,496q0-156-75.5-273.5t-200-183T324-26Z" />
      <glyph unicode="6" glyph-name="gid132" horiz-adv-x="1152" d="M484-28Q358-28 262.5,23t-149,145T60,390q0,161 69.5,316.5t186.5,294t262.5,248T876,1428l144-160q-58-25-141-71T705.5,1087.5T532.5,944t-142-174T312,570l-48,80q66,86 161,139t233,53q159,0 255.5-100.5T1010,476q0-143-69-257T753,38.5T484-28Zm22,212q76,0 136,34.5T737,312t35,134q0,80-53.5,132T584,630q-77,0-138-35t-96-95T316,364q2-78 56.5-129T506,184Z" />
      <glyph unicode="7" glyph-name="gid133" horiz-adv-x="1036" d="M40,0L762,1258l56-98H178l42,240h896L308,0H40Z" />
      <glyph unicode="8" glyph-name="gid134" horiz-adv-x="1184" d="M584,680q-102,0-182.5,38T275,824.5T228,986q0,126 64,226t174.5,158T714,1428q125,0 202-42.5t112.5-112T1064,1122q0-131-64.5-230.5T826,736T584,680Zm34,186q99,0 159.5,64T838,1082q0,66-38,106t-118,40q-100,0-164.5-61.5T454,1016q1-66 44.5-108T618,866ZM472-28Q340-28 245,16.5T99,140.5T48,326q0,111 43.5,202.5T212.5,687T392,790t218,36q191,0 301.5-95T1022,478q0-148-75-262T747,37T472-28Zm26,220q85,0 150,34t101.5,92.5T786,452q0,83-53,135.5T578,640q-84,0-149-34.5T327,510T290,370q0-81 54-129.5T498,192Z" />
      <glyph unicode="9" glyph-name="gid135" horiz-adv-x="1168" d="M656,1428q126,0 221.5-51t149-145t53.5-222q0-161-69.5-316.5T824,399.5t-262.5-248T264-28L120,132q58,25 141,71T434.5,312.5T607.5,456t142,174T828,830l48-80q-66-86-161-139T482,558q-159,0-255.5,100.5T130,924q0,143 69,257t188,180.5T656,1428Zm-22-212q-76,0-136-34.5T403,1088T368,954q0-80 53.5-132T556,770q77,0 138,35t96,95t34,136q-2,78-56.5,129T634,1216Z" />
      <glyph unicode=":" glyph-name="gid167" horiz-adv-x="400" d="M100,728l48,272H408L360,728H100ZM-28,0L20,272H280L232,0H-28Z" />
      <glyph unicode=";" glyph-name="gid178" horiz-adv-x="400" d="M60-240H-56L74,0H-28L20,272H280L236,24L60-240Zm40,968l48,272H408L360,728H100Z" />
      <glyph unicode="&lt;" glyph-name="gid221" horiz-adv-x="854" d="M24,450L60,658L810,976L772,762L141,504l3,93L696,336L662,134L24,450Z" />
      <glyph unicode="=" glyph-name="gid219" horiz-adv-x="884" d="M40,624L72,808H812L780,624H40ZM-16,300L16,484H756L724,300H-16Z" />
      <glyph unicode="&gt;" glyph-name="gid220" horiz-adv-x="798" d="M726,660L690,452L-60,134l38,214L609,606l-3-93L54,774L88,976L726,660Z" />
      <glyph unicode="?" glyph-name="gid174" horiz-adv-x="954" d="M206,414l3,20q12,77 44.5,135T333,674t99,92q56,48 104,92t77,92.5T642,1060q0,59-41,90.5T488,1182q-81,0-153.5-21.5T188,1106l12,236q86,38 177.5,62T592,1428q165,0 253.5-80T934,1140q0-89-36-162.5t-95-136T676,722q-54-45-96.5-86.5t-70-87T473,446l-5-32H206ZM132,0l48,272H440L392,0H132Z" />
      <glyph unicode="@" glyph-name="gid227" horiz-adv-x="1392" d="M440-174Q251-174 146.5-66T42,234q0,181 74,339T315,851t280,187.5T912,1106q195,0 298.5-110T1314,700q0-82-21.5-171t-66-166.5T1115,236.5T956,188q-30,0-49,12.5T888,256q0,60 27,129t71,159t94,214q-28,39-81,72.5T866,864q-98,0-202-54.5T471,665T327,467T272,252q0-69 32-120.5T414,80q55,0 124,26.5T676,185T800,312q-1-7-5-17.5t-7.5-24T781,241t-3-35q0-42 18.5-82T866,84q34,0 83.5,18.5T1050,150t88,62Q1057,98 944.5,11t-242-136T440-174Zm60,386q-34,0-50,27t-16,67q0,88 44,166.5t112,139T731,707t131,35q17,0 44.5-6T940,698q-28-80-81.5-165T740,375T611.5,257T500,212Z" />
      <glyph unicode="A" glyph-name="gid1" horiz-adv-x="1214" d="M-86,0L638,1400H878L1108,0H842L785,354L746,570l-76,540l67-11L477,572L359,352L180,0H-86ZM266,338L398,586H810l44-248H266Z" />
      <glyph unicode="B" glyph-name="gid10" horiz-adv-x="1232" d="M52,0L298,1400H714q87,0 163-15t133-50.5t89.5-97T1132,1084q0-132-72-231T869,707l-19,56q143-20 217.5-97T1142,464q0-112-43.5-198.5T979,120T805,30.5T598,0H52ZM360,838H668q84,0 142,54.5T868,1046q0,49-16,79t-46.5,43.5T730,1182H516L346,218H588q76,0 137,27t97,80.5T858,458q0,84-49.5,131T660,636H324l36,202Z" />
      <glyph unicode="C" glyph-name="gid11" horiz-adv-x="1186" d="M640-28Q469-28 344.5,44T152,250.5T84,574q0,185 63,341t174.5,271T580,1364.5T894,1428q99,0 198-22t166-60l-72-244q-60,27-144,53.5T860,1182q-122,0-214.5-47T491,1007T397.5,820.5T366,598q0-113 32-198.5T501.5,266T692,218q86,0 177,23.5T1044,298L1030,54Q949,17 842.5-5.5T640-28Z" />
      <glyph unicode="D" glyph-name="gid13" horiz-adv-x="1404" d="M52,0L298,1400H802q167,0 291.5-67T1287,1136t69-320q0-181-62.5-331T1121,226.5T866,59T556,0H52ZM332,133L237,246H600q116,0 204.5,43T953,407.5t90.5,174T1074,792q0,177-78,269.5T760,1154H397l135,113L332,133Z" />
      <glyph unicode="E" glyph-name="gid15" horiz-adv-x="1110" d="M338,135L243,248H982L938,0H52L298,1400h868l-44-248H403l135,113L338,135Zm52,719H932L888,606H346l44,248Z" />
      <glyph unicode="F" glyph-name="gid20" horiz-adv-x="1026" d="M308,0H52L298,1400h830l-44-248H397l136,113L308,0Zm84,854H902L858,606H348l44,248Z" />
      <glyph unicode="G" glyph-name="gid21" horiz-adv-x="1292" d="M650-28Q485-28 357,45T156.5,253.5T84,578q0,182 62.5,337T320,1185t257.5,179T892,1428q67,0 141.5-10t141.5-28.5t111-43.5l-72-244q-70,33-167.5,56.5T860,1182q-124,0-216.5-48t-154-130T398,819.5T368,608q0-180 82-285T700,218q56,0 123.5,11.5T971,261L860,127l84,476l95-113H786l38,212h392L1106,78Q1027,35 913.5,3.5T650-28Z" />
      <glyph unicode="H" glyph-name="gid22" horiz-adv-x="1436" d="M52,0L298,1400H554L308,0H52ZM922,0l246,1400h256L1178,0H922ZM298,606l44,248h846l-44-248H298Z" />
      <glyph unicode="I" glyph-name="gid23" horiz-adv-x="566" d="M52,0L298,1400H554L308,0H52Z" />
      <glyph unicode="J" glyph-name="gid29" horiz-adv-x="566" d="M-140-344l14,192h60q29,0 51.5,15T25-87T52,8L298,1400H554L298-48Q272-198 172.5-271T-64-344h-76Z" />
      <glyph unicode="K" glyph-name="gid30" horiz-adv-x="1212" d="M804,0L456,740l566,660h310L655,655l28,189L1082,0H804ZM52,0L298,1400H554L308,0H52Z" />
      <glyph unicode="L" glyph-name="gid31" horiz-adv-x="980" d="M52,0L298,1400H554L332,135L237,248H894L850,0H52Z" />
      <glyph unicode="M" glyph-name="gid32" horiz-adv-x="1618" d="M-16,0L418,1400H640L872,652l-98,14l488,734h220L1424,0H1158l63,1045l60-22L756,294L487,1038l72,2L250,0H-16Z" />
      <glyph unicode="N" glyph-name="gid33" horiz-adv-x="1376" d="M52,0L298,1400H548L995,391l-67-8l180,1017h256L1116,0H908L431,1065l67,8L308,0H52Z" />
      <glyph unicode="O" glyph-name="gid35" horiz-adv-x="1484" d="M642-28Q471-28 345.5,44T152,251T84,574q0,184 63,339.5t174,271T576,1364t306,64q171,0 296-72t193.5-207T1440,826q0-184-63-339.5t-174-271T948,36T642-28Zm40,246q112,0 200,48t149,130.5T1124,584t32,220q0,116-34,201t-104,131t-178,46q-112,0-200-48T491,1003.5T398,816T366,596q0-116 34-201T504,264t178-46Z" />
      <glyph unicode="P" glyph-name="gid43" horiz-adv-x="1174" d="M344,700H658q81,0 143.5,31.5T899,827t35,163q0,98-44.5,147T746,1186H401l135,113L306,0H52L298,1400H774q140,0 235-48t143-135.5t48-206.5q0-135-42.5-238t-120-172T854,495.5T620,460H302l42,240Z" />
      <glyph unicode="Q" glyph-name="gid45" horiz-adv-x="1484" d="M642-28Q471-28 345.5,44T152,251T84,574q0,184 63,339.5t174,271T576,1364t306,64q171,0 296-72t193.5-207T1440,826q0-169-63-322.5T1203,230T948,41T642-28Zm40,246q112,0 200,53t149,140t93,190t32,203q0,116-34,201t-104,131t-178,46q-112,0-200-48T491,1003.5T398,816T366,596q0-116 34-201T504,264t178-46ZM1152-20L730,406L912,584l420-426L1152-20Z" />
      <glyph unicode="R" glyph-name="gid46" horiz-adv-x="1226" d="M52,0L298,1400H757q221,0 332-91.5T1200,1044q0-106-39.5-190t-103-147T919,602.5t-147.5-62T644,520H258l30,240H634q95,0 160,34.5t98.5,93T926,1018q0,80-45,124t-149,44H381l158,128L306,0H52ZM826,0L605,624l258,50L1092,0H826Z" />
      <glyph unicode="S" glyph-name="gid47" horiz-adv-x="1132" d="M456-28Q312-28 201,3T10,74L90,366q63-55 163-101.5T486,218q79,0 137,16.5t89.5,54T744,388q0,60-28.5,99.5t-87.5,70T478,620q-79,28-140.5,59.5T234.5,753t-63,100T150,992q0,95 38,174.5t108.5,138t169.5,91T686,1428q150,0 265-36t175-72l-72-262q-103,62-192,94t-196,32q-69,0-126-16t-90.5-52T416,1020q0-76 66-113.5T650,834q70-24 138.5-52.5t125-71.5T1004,602.5T1038,442q0-82-29.5-165.5t-97-152T732,14T456-28Z" />
      <glyph unicode="T" glyph-name="gid48" horiz-adv-x="1128" d="M334,0L542,1188H798L590,0H334ZM158,1152l44,248H1214l-44-248H158Z" />
      <glyph unicode="U" glyph-name="gid49" horiz-adv-x="1390" d="M588-28Q353-28 239.5,92.5T126,424q0,25 3.5,75.5T142,600l142,800H538L412,686q-8-47-14.5-100.5T392,490q1-80 22.5-141.5t73-96T630,218q96,0 162.5,38T902,359.5T971.5,509T1014,686l126,714h256L1254,600q-33-187-117-328.5T916,51T588-28Z" />
      <glyph unicode="V" glyph-name="gid54" horiz-adv-x="1276" d="M372,0L140,1400H406L609,184l-70,11l599,1205h264L688,0H372Z" />
      <glyph unicode="W" glyph-name="gid55" horiz-adv-x="1868" d="M306,0L174,1400H440L538,291l-59,11L998,1400h172L1320,318l-62,8l468,1074h266L1352,0H1132L984,1048l67-11L542,0H306Z" />
      <glyph unicode="X" glyph-name="gid56" horiz-adv-x="1232" d="M-98,0L528,756L630,551L198,0H-98ZM781,724L1126,0H826L594,529L505,706L174,1400H470L684,881l97-157Zm-23-51L649,858l395,542h298L758,673Z" />
      <glyph unicode="Y" glyph-name="gid57" horiz-adv-x="1206" d="M366,0L494,733l25-219L146,1400H418L689,733L577,748l485,652h272L659,529l91,204L620,0H366Z" />
      <glyph unicode="Z" glyph-name="gid59" horiz-adv-x="1072" d="M-78,0L792,1246l49-94H212l44,248h936L322,154l-49,94H902L858,0H-78Z" />
      <glyph unicode="[" glyph-name="gid185" horiz-adv-x="652" d="M-16-272L296,1500H790l-38-218H369l135,113L228-167L133-54H516L478-272H-16Z" />
      <glyph unicode="\" glyph-name="gid164" horiz-adv-x="710" d="M360-170L140,1400H390L610-170H360Z" />
      <glyph unicode="]" glyph-name="gid186" horiz-adv-x="666" d="M-136-272L-98-54H138L374,1282H138l38,218H638L326-272H-136Z" />
      <glyph unicode="^" glyph-name="gid237" horiz-adv-x="908" d="M40,888l46,264l412,366l338-424L790,830L452,1220L40,888Z" />
      <glyph unicode="_" glyph-name="gid180" horiz-adv-x="1072" d="M-140-260l34,188H968L936-260H-140Z" />
      <glyph unicode="`" glyph-name="gid266" horiz-adv-x="778" d="M570,1140L220,1292l40,230l338-224l-28-158Z" />
      <glyph unicode="a" glyph-name="gid61" horiz-adv-x="1168" d="M406-20Q290-20 207,34T80,182T36,396q0,117 38.5,227.5T186.5,823T364,964t234,52q69,0 119-17t89.5-48.5T881,875l-94-52l71,177h216L958,316q-8-48-8-76q0-42 21.5-49t76.5-7L992-20q-94,0-147,7.5t-82,28t-50,59T662,174l83-37q-37-34-83-70.5T554,5T406-20Zm84,204q83,0 136,40t82,103t40.5,131.5T760,584q0,105-42,166.5T580,812q-85,0-149.5-52T330,620.5T294,428q0-109 46.5-176.5T490,184Z" />
      <glyph unicode="b" glyph-name="gid69" horiz-adv-x="1120" d="M550-20Q432-20 352,35.5T228,187l66,45L236,0H14L278,1500H528L404,803l-32,54q37,53 87.5,88t109,53T688,1016q119,0 200-56.5t122.5-153T1052,590q0-115-33.5-224T921,169.5T763.5,31T550-20ZM516,184q85,0 148,52.5T761.5,376T796,566q0,110-42.5,178T616,812q-96,0-160-57T360,608T328,418q0-108 42.5-171T516,184Z" />
      <glyph unicode="c" glyph-name="gid70" horiz-adv-x="874" d="M432-20Q290-20 203,37T76,189.5T36,402q0,118 38,228T186,827T369,965t251,51q93,0 155.5-21T880,942L822,730q-45,36-96,59T618,812q-100,0-172.5-52t-112-139.5T294,428q0-109 50-176.5T508,184q107,0 232,82L724,54Q670,20 596,0T432-20Z" />
      <glyph unicode="d" glyph-name="gid72" horiz-adv-x="1122" d="M394-20Q276-20 196.5,34T76.5,179.5T36,384q0,120 35,233T173.5,820T337,963t217,53q94,0 158-36.5T815,884t57-128l-82,36l126,708h248L900,0H664l41,219l39-51Q668,80 582,30T394-20Zm86,204q74,0 127,36.5t87,96t50,130T760,584q0,96-38.5,162T582,812q-86,0-151-53.5t-101-143T294,418q0-105 44.5-169.5T480,184Z" />
      <glyph unicode="e" glyph-name="gid74" horiz-adv-x="976" d="M284,575q35-9 62.5-12t61.5-3q122,0 189.5,22.5t94,58T718,714q0,45-24.5,66t-55,26.5T590,812q-81,0-139-45T358.5,662T313,557L295,433q1-92 34.5-146.5T416,208t110-24q90,0 170,24t144,58L812,56Q751,23 665.5,1.5T478-20Q326-20 228,37.5T83,192.5T36,410q0,115 40,223T190,827.5T368,965t232,51q159,0 242.5-79.5T926,726q0-91-39-154T780.5,470.5T627.5,415T448,398q-55,0-102,5t-77,13l15,159Z" />
      <glyph unicode="f" glyph-name="gid79" horiz-adv-x="670" d="M288,1238q12,65 44,125t98.5,98.5T612,1500q36,0 83.5-3.5T786,1488l-58-206q-33,6-48,8t-32,2q-51,0-75.5-16.5t-34.5-51T518,1136L318,0H70L288,1238ZM78,796l58,204H700L664,796H78Z" />
      <glyph unicode="g" glyph-name="gid80" horiz-adv-x="974" d="M398,228q-161,0-244.5,88.5T70,556q0,120 57.5,225T289,951t245,65q149,0 238.5-83T862,692q0-91-32-174T737.5,369.5T591,266T398,228Zm32,182q67,0 114,35.5T615.5,540T640,668q0,80-34,123T500,834q-67,0-113.5-36T316,703T292,574q0-78 33-121t105-43ZM318-500q-147,0-237,37.5T-50.5-365T-92-238q0,60 27.5,108T12-43T125,29L288-37q-42-12-81.5-32t-65-50.5T116-194q0-61 56.5-95.5T332-324q75,0 138.5,18T572-255.5T610-180q0,49-40.5,73t-105,36T328-49T191.5-20.5t-105,56T46,142q0,58 36.5,97.5T184,309l133-65q-18-4-28.5-15.5T278,200q0-34 59.5-48T496,124q48-7 106-20T713,63.5T800-13t34-129q0-101-61.5-182t-177-128.5T318-500ZM820,839L734,951q26,18 85.5,33.5T952,1000h68L978,844H884q-10,0-27-0.5T820,839Z" />
      <glyph unicode="h" glyph-name="gid81" horiz-adv-x="1076" d="M14,0L278,1500H526L262,0H14ZM618,0l84,492q8,44 14,90t6,88q0,66-33.5,104T592,812T479,786T376,714l33,186q72,62 141,89t146,27q91,0 153-38t93.5-105.5T974,718q0-36-3.5-80.5T956,530L866,0H618Z" />
      <glyph unicode="i" glyph-name="gid82" horiz-adv-x="484" d="M14,0L190,1000H438L262,0H14ZM218,1152l42,248H510l-44-248H218Z" />
      <glyph unicode="j" glyph-name="gid89" horiz-adv-x="486" d="M-160-484l14,204q51,0 76,8.5t38,42T-6-120L192,1000H440L224-222q-19-106-87.5-184T-68-484h-92ZM218,1152l44,248H510l-44-248H218Z" />
      <glyph unicode="k" glyph-name="gid91" horiz-adv-x="960" d="M14,0L278,1500H528L262,0H14ZM560,0L302,520l436,480h278L509,434l27,190L838,0H560Z" />
      <glyph unicode="l" glyph-name="gid92" horiz-adv-x="528" d="M254-20Q146-20 97,36.5T48,178q0,23 6.5,65.5T76,370L276,1500H524L322,350q-7-42-10.5-65.5T308,246q0-46 25.5-54t68.5-8L344-20H254Z" />
      <glyph unicode="m" glyph-name="gid93" horiz-adv-x="1672" d="M14,0L190,1000H394l1-254L262,0H14ZM616,0q29,164 48.5,275.5t31.5,182t18.5,111t9,62.5t2.5,37q0,87-48.5,115.5T572,812q-61,0-106-25t-86-70l5,197q41,38 114,70t155,32q64,0 125.5-24t105-77T937,775l48-72L862,0H616Zm598,0q31,176 50.5,290t31,181T1312,572.5t6.5,49.5t1.5,26q0,99-36,131.5T1186,812q-74,0-118.5-29.5t-67-74T970,618L901,824q-4,28 40.5,73.5t126,82T1256,1016q162,0 238-92.5T1570,682q0-14-1.5-33.5t-7-58t-17.5-110t-31.5-188T1462,0H1214Z" />
      <glyph unicode="n" glyph-name="gid94" horiz-adv-x="1072" d="M14,0L190,1000H408l15-88L262,0H14ZM612,0q31,174 50.5,288T693,470t16,103t6,49t1,22q0,87-33.5,127.5T574,812q-61,0-106.5-26T378,713l28,219q53,35 115.5,59.5T668,1016q155,0 228.5-94.5T970,678q0-12-1.5-30T962,592T945,482.5T913,294T862,0H612Z" />
      <glyph unicode="o" glyph-name="gid96" horiz-adv-x="1098" d="M448-20Q309-20 217,38.5T79.5,194.5T34,410T77,636.5t121,194T383,966t235,50q139,0 231-58.5t137.5-156T1032,586T989,359.5t-121-194T683,30T448-20Zm34,204q87,0 153.5,53T739,377.5T776,568q0,114-48.5,179T584,812q-86,0-152.5-52t-104-139T290,430q0-114 48-180t144-66Z" />
      <glyph unicode="p" glyph-name="gid104" horiz-adv-x="1120" d="M-72-484L190,1000H408l5-203l-60,66q71,66 154,109.5T700,1016q112,0 190.5-52.5t120-147.5T1052,594q0-137-34.5-250t-100-194.5T760,24T552-20Q427-20 353.5,37.5T250,168l50,57L176-484H-72ZM532,184q79,0 138.5,49.5T763,370t33,200q0,108-41,175T622,812T463.5,757.5t-102-146T326,408q0-108 50-166t156-58Z" />
      <glyph unicode="q" glyph-name="gid106" horiz-adv-x="1122" d="M564-484L682,187l42-58Q651,59 577,19.5T402-20Q279-20 197.5,37T76,190.5T36,406q0,117 37,226T179.5,828t168,137.5T568,1016q116,0 184-50.5T871,811l-92-29l103,218h194L814-484H564ZM490,184q92,0 152.5,54.5t90,145.5T762,584q0,105-40,166.5T584,812q-88,0-153.5-52t-102-139T292,430q0-111 47.5-178.5T490,184Z" />
      <glyph unicode="r" glyph-name="gid107" horiz-adv-x="680" d="M14,0L190,1000H426L385,698L260,0H14ZM371,663l28,216q20,29 64,61t100.5,54T678,1016h70L660,782H566q-42,0-81-16t-69-43t-45-60Z" />
      <glyph unicode="s" glyph-name="gid108" horiz-adv-x="832" d="M306-20Q213-20 128,1.5T-26,54L32,266q59-36 134.5-68T324,166q77,0 112.5,33T472,280q0,57-37.5,85T320,418q-68,23-122,53t-85,79T82,678q0,96 48.5,172.5T272,971.5T500,1016q96,0 171-22t127-52L744,742q-52,38-119,67T472,838q-69,0-113.5-25.5T314,728q0-64 54.5-90T508,580q71-26 119-60.5t72.5-85T724,310q0-68-26.5-128T618,76.5T487,5.5T306-20Z" />
      <glyph unicode="t" glyph-name="gid110" horiz-adv-x="676" d="M326-20Q209-20 158.5,43T108,190q0,6 2,22t10,66.5t27,159t52.5,298T286,1220l252,26L368,248q0-45 26.5-54.5T488,184h70L498-20H326ZM78,796l58,204H700L664,796H78Z" />
      <glyph unicode="u" glyph-name="gid111" horiz-adv-x="1082" d="M392-20Q229-20 149.5,73T70,322q0,28 3.5,60.5T84,454l94,546H426L336,472q-7-40-10.5-66T322,356q0-168 148-168q62,0 110.5,25.5T670,285L649,84Q592,38 532,9T392-20ZM626,0l29,256l133,744h248L860,0H626Z" />
      <glyph unicode="v" glyph-name="gid116" horiz-adv-x="964" d="M268,0L74,1000H316L442,194l-71,12l409,794h240L472,0H268Z" />
      <glyph unicode="w" glyph-name="gid117" horiz-adv-x="1406" d="M200,0L96,1000H332l47-813l-53,10L670,980H872l65-793l-53,9l332,804h236L996,0H796L700,766l64-10L400,0H200Z" />
      <glyph unicode="x" glyph-name="gid118" horiz-adv-x="962" d="M534,0L421,311L322,485L98,1000H396L505,663l99-148L832,0H534ZM-78,0L342,533L451,332L220,0H-78ZM590,475L481,650l231,350h298L590,475Z" />
      <glyph unicode="y" glyph-name="gid119" horiz-adv-x="1046" d="M-6-484L361,166L332-46L68,1000H344L490,243l-78,13l418,744h276L240-484H-6Z" />
      <glyph unicode="z" glyph-name="gid122" horiz-adv-x="922" d="M-56,0L560,874l49-94H100l40,220H950L334,126l-49,94H790L750,0H-56Z" />
      <glyph unicode="{" glyph-name="gid183" horiz-adv-x="688" d="M422-272q-165,0-239,67.5T110-22q0,55 12,107.5T149.5,190t27,105.5T188,406q0,65-32.5,96.5T46,534L74,694q95,0 142,52t65,161q13,79 14,142t12,130q24,145 129,233t298,88h74l-38-218H716q-36,0-71-6t-64-23.5T531,1203t-29-85q-6-37-8.5-82T488,943t-11-93q-20-122-94.5-179.5T198,586l8,56q84-22 134-67.5T390,440q0-36-11-87.5T353,246T327,143T316,66q0-44 19.5-70.5t56-38T480-54h54L496-272H422Z" />
      <glyph unicode="|" glyph-name="gid235" horiz-adv-x="472" d="M-60-420L280,1500H528L188-420H-60Z" />
      <glyph unicode="}" glyph-name="gid184" horiz-adv-x="688" d="M266,1500q165,0 239-67.5T578,1250q0-55-12-107.5T538.5,1038t-27-105.5T500,822q0-65 32.5-96.5T642,694L614,534q-95,0-142-52T407,321q-13-79-14-142T381,49Q357-96 252-184T-46-272h-74L-82-54h54q36,0 71,6t64,23.5T157,25t29,85q6,37 8.5,82t5.5,93t11,93q20,122 94.5,179.5T490,642l-8-56q-84,22-134,67.5T298,788q0,36 11,87.5T335,982t26,103t11,77q0,44-19.5,70.5t-56,38T208,1282H154l38,218h74Z" />
      <glyph unicode="~" glyph-name="gid223" horiz-adv-x="894" d="M612,578q-55,0-102.5,24t-92,48T326,674q-37,0-62.5-21.5T230,592H60q24,129 92.5,197.5T320,858q59,0 107.5-24T519,786t87-24q65,0 78,86H854Q813,578 612,578Z" />
      <glyph unicode="&#xa0;" glyph-name="gid204" horiz-adv-x="432" />
      <glyph unicode="&#xa1;" glyph-name="gid171" horiz-adv-x="422" d="M320,586l-10-58L168-400H-80L106,528l10,58H320Zm102,414L374,728H114l48,272H422Z" />
      <glyph unicode="&#xa2;" glyph-name="gid208" horiz-adv-x="920" d="M502,68L460-288H264L346,68H502Zm-2,868l40,342H736L656,936H500ZM432-20Q290-20 203,37T76,189.5T36,402q0,118 38,228T186,827T369,965t251,51q93,0 155.5-21T880,942L822,730q-45,36-96,59T618,812q-100,0-172.5-52t-112-139.5T294,428q0-109 50-176.5T508,184q107,0 232,82L724,54Q670,20 596,0T432-20Z" />
      <glyph unicode="&#xa3;" glyph-name="gid212" horiz-adv-x="1090" d="M228,98L182,240H874L832,0H-40Q4,86 38.5,161t63,148T156,461.5T209,636l105,364q36,125 97.5,221.5T573,1373t251,55q69,0 126.5-13.5T1062,1374l-66-262q-49,33-97.5,52.5T794,1184q-74,0-120.5-31T601,1073.5T560,972L470,652q-27-94-54.5-179.5T345,297.5T228,98ZM54,624L86,800H850L818,624H54Z" />
      <glyph unicode="&#xa4;" glyph-name="gid209" horiz-adv-x="1296" d="M536,178q-138,0-235,53.5t-148,148T102,596q0,128 48,240t133.5,197T481,1166t239,48q133,0 230-53t149.5-147T1152,796q0-130-48-242T971,357.5t-196.5-132T536,178Zm40,224q97,0 169,49.5T856.5,583T896,764q0,102-54.5,164T680,990q-97,0-169-49T399.5,809.5T360,628q0-102 55-164t161-62ZM18,60L-80,176L256,462l96-118L18,60Zm1008-4L780,358L906,460l246-300L1026,56ZM348,934L104,1232l126,104l240-294L348,934Zm658,2l-98,118l330,278l98-116L1006,936Z" />
      <glyph unicode="&#xa5;" glyph-name="gid213" horiz-adv-x="1228" d="M102,528l30,176H932L902,528H102ZM52,248L82,424H882L852,248H52ZM280,0L408,733l25-219L60,1400H332L603,733L491,748l485,652h272L573,529l91,204L534,0H280Z" />
      <glyph unicode="&#xa6;" glyph-name="gid236" horiz-adv-x="472" d="M136,684l144,816H528L384,684H136ZM-60-420L84,396H332L188-420H-60Z" />
      <glyph unicode="&#xa7;" glyph-name="gid230" horiz-adv-x="928" d="M450,898q-78-36-125-92.5T278,686q0-52 29-88.5T381.5,532T478,473.5T574.5,407T649,318t29-128Q678,86 626,4.5t-144-128T270-170q-82,0-151,26T0-88L54,122q53-40 126.5-70T318,22q78,0 129,33.5T498,144q0,51-30.5,88.5t-78.5,69t-102,63t-102,69t-78.5,87T76,638q0,110 80,192.5T374,974l76-76ZM654,650q0,64-29,104.5t-75,69t-97,54t-97,58t-75,82T252,1144q0,104 55.5,184.5t150,126T670,1500q89,0 153.5-26T928,1418l-54-210q-55,41-125,70.5T602,1308q-64,0-116-28.5T434,1188q0-47 30-79.5t78-59.5t101-56t101-67.5T822,831t30-139q0-79-37-137.5T711.5,449T558,358l-84,88q49,20 90,51t65.5,70T654,650Z" />
      <glyph unicode="&#xa8;" glyph-name="gid265" horiz-adv-x="800" d="M140,1182l36,180H364l-36-180H140Zm396,0l36,180H760l-36-180H536Z" />
      <glyph unicode="&#xa9;" glyph-name="gid231" horiz-adv-x="1390" d="M604,74q-150,0-261,67T171,328.5T110,610q0,170 57,312t157.5,246t232,161T836,1386q150,0 261-66.5T1269,1133t61-281q0-170-57-312.5t-157.5-247T884,131T604,74Zm26,138q132,0 233,50.5T1033,401t104,201.5T1172,842q0,117-38.5,208.5T1015,1194t-203,52q-133,0-234.5-50t-171-138t-105-201T266,618q0-117 39.5-208.5T425.5,265T630,212Zm44,168q-120,0-191,77.5T412,662q0,120 52,213t139,146t193,53q53,0 104-13t88-33L938,858q-42,20-83,33t-89,13q-52,0-90-28.5T617,797T596,684q0-61 27-98.5T704,548q48,0 93.5,14T892,598L882,430q-45-24-101-37T674,380Z" />
      <glyph unicode="&#xaa;" glyph-name="gid124" horiz-adv-x="632" d="M264,868q-75,0-119.5,39.5T100,1014q0,59 31.5,102.5t85.5,73t122,47T479,1260l-23-132q-32-3-62.5-11.5t-50-25T324,1046q0-36 40-36q17,0 30,4.5t28,13.5l19,114q9,48 12.5,68.5T458,1241t2,23q1,14-14,22t-60,8q-43,0-90.5-8T204,1264l18,162q68,18 128.5,28T466,1464q98,0 152-45t54-123q0-10-1-20t-3-18l-30-168q-1-8-2.5-15.5T634,1062q0-13 7-18.5t25-5.5h6L634,868H564q-78,0-114,35.5T444,1015l22-26q-4-36-38.5-63.5t-80-42.5T264,868Z" />
      <glyph unicode="&#xab;" glyph-name="gid193" horiz-adv-x="1188" d="M742,156L522,568L888,980h296L741,482l23,188l274-514H742Zm-500,0L22,568L388,980H684L241,482l22,187L540,156H242Z" />
      <glyph unicode="&#xac;" glyph-name="gid224" horiz-adv-x="1012" d="M648,302l76,435l95-113H60L92,812H940L852,302H648Z" />
      <glyph unicode="&#xad;" glyph-name="gid192" horiz-adv-x="858" d="M108,528l36,188H738L704,528H108Z" />
      <glyph unicode="&#xae;" glyph-name="gid232" horiz-adv-x="1390" d="M604,74q-150,0-261,67T171,328.5T110,610q0,170 57,312t157.5,246t232,161T836,1386q150,0 261-66.5T1269,1133t61-281q0-170-57-312.5t-157.5-247T884,131T604,74Zm26,140q132,0 233,50.5T1032,403t103,201.5T1170,844q0,116-38.5,206.5t-117.5,142T812,1244q-132,0-233.5-50T408,1057T303.5,857T268,618q0-116 39.5-207.5T427,266.5T630,214ZM418,406l118,670H784q57,0 102-15.5t70.5-52.5T982,906q0-84-42-141t-84-83l96-276H764L684,630H634L596,406H418ZM664,792h40q53,0 73.5,22.5T798,880q0,21-12.5,33.5T732,926H688L664,792Z" />
      <glyph unicode="&#xaf;" glyph-name="gid267" horiz-adv-x="912" d="M160,1182l32,162H832l-32-162H160Z" />
      <glyph unicode="&#xb0;" glyph-name="gid234" horiz-adv-x="590" d="M296,964q-106,0-161,62.5T80,1180t41.5,166t112,119.5T392,1510q108,0 163-63t55-155q0-91-41.5-165.5T456,1008T296,964Zm22,122q50,0 84.5,27t52,70t17.5,91q0,53-25.5,83.5T370,1388q-48,0-82.5-28t-53-71T216,1200q0-52 27-83t75-31Z" />
      <glyph unicode="&#xb1;" glyph-name="gid222" horiz-adv-x="890" d="M464,370H268l124,700H588L464,370ZM-44,94l32,180H712L680,94H-44ZM82,810H806L774,630H50L82,810Z" />
      <glyph unicode="&#xb2;" glyph-name="gid157" horiz-adv-x="638" d="M32,772l278,316q59,66 86.5,113t27.5,93q0,35-21,55.5T338,1370q-51,0-99.5-24T140,1284l18,184q59,33 124,54.5T420,1544q102,0 160-51t58-137q0-85-48-162.5T464,1026L262,794L246,946H602L572,772H32Z" />
      <glyph unicode="&#xb3;" glyph-name="gid158" horiz-adv-x="648" d="M296,752q-78,0-141,19.5T42,824l68,172q39-30 81-50t97-20q54,0 87,21.5t33,64.5q0,33-25,53.5T302,1086H240l28,154h64q47,0 75.5,19.5T436,1316q0,27-17.5,44.5T360,1378q-48,0-94.5-17.5T174,1314l18,182q54,26 117.5,41T440,1552q102,0 156-49t54-127q0-81-47.5-137T480,1156l4,24q57-18 91.5-56T610,1020q0-79-43-139.5T452.5,786T296,752Z" />
      <glyph unicode="&#xb4;" glyph-name="gid262" horiz-adv-x="838" d="M220,1140l34,166l404,216l-38-250L220,1140Z" />
      <glyph unicode="&#xb5;" glyph-name="gid225" horiz-adv-x="1162" d="M722,114Q673,62 599.5,21T442-20q-43,0-80,11T296,18L208-484H-40L220,1000H468L366,422q-4-21-6-41.5T358,344q0-156 158-156q62,0 110,25.5T713,285l9-171ZM699,256l131,744h248L964,344q-6-34-10-60t-4-44q0-56 56-56h42L990-20H906q-83,0-133,36.5T708,120l-9,136Z" />
      <glyph unicode="&#xb6;" glyph-name="gid229" horiz-adv-x="1214" d="M806,1186L596,0H454L556,571l87-112q-178-14-293.5,42.5T178,656.5T122,866q0,97 42,191.5t124,172t201,124T762,1400h500l-38-214H806Zm291,16L884,0H702L915,1202h182Z" />
      <glyph unicode="&#xb7;" glyph-name="gid165" horiz-adv-x="460" d="M82,426l46,260H366L320,426H82Z" />
      <glyph unicode="&#xb8;" glyph-name="gid263" horiz-adv-x="622" d="M372-158l-72,30q27,9 53.5,14.5T408-108q72,0 113-37.5T562-252q0-100-75.5-163T298-478q-52,0-91.5,11.5T140-440l60,118q29-15 58.5-24.5T324-356q51,0 79.5,21.5T432-280q0,60-92,60q-24,0-47.5-3T240-234L338,0H448L372-158Z" />
      <glyph unicode="&#xb9;" glyph-name="gid156" horiz-adv-x="430" d="M116,772l114,643l54-55q-57-51-112-82T68,1236l18,160q53,17 110.5,50.5T288,1516H438L306,772H116Z" />
      <glyph unicode="&#xba;" glyph-name="gid125" horiz-adv-x="686" d="M380,868q-129,0-195,73t-65,173q1,101 50,180t132,124.5T484,1464q129,0 195.5-71.5T746,1220q0-97-50-177T563,915.5T380,868Zm26,154q44,0 72.5,28.5t42,72T534,1212q0,48-19,73t-57,25q-44,0-72.5-28.5t-42-72T330,1122q0-48 19.5-74t56.5-26Z" />
      <glyph unicode="&#xbb;" glyph-name="gid194" horiz-adv-x="1190" d="M498,156L941,654L919,467L642,980H940l220-412L794,156H498ZM-2,156L441,654L418,466L144,980H440L660,568L294,156H-2Z" />
      <glyph unicode="&#xbc;" glyph-name="gid161" horiz-adv-x="1312" d="M84,656l114,643l54-55q-57-51-112-82T36,1120l18,160q53,17 110.5,50.5T256,1400H406L274,656H84ZM-40,0L1034,1400h198L160,0H-40ZM1104,0H934l118,632l52-42L804,250l-64,54h516l-26-144H554l520,584h162L1104,0Z" />
      <glyph unicode="&#xbd;" glyph-name="gid160" horiz-adv-x="1406" d="M-40,0L1034,1400h198L160,0H-40ZM700,0L978,316q59,66 86.5,113t27.5,93q0,35-21,55.5T1006,598q-51,0-99.5-24T808,512l18,184q59,33 124,54.5T1088,772q102,0 160-51t58-137q0-85-48-162.5T1132,254L930,22L914,174h356L1240,0H700ZM90,656l114,643l54-55q-57-51-112-82T42,1120l18,160q53,17 110.5,50.5T262,1400H412L280,656H90Z" />
      <glyph unicode="&#xbe;" glyph-name="gid162" horiz-adv-x="1518" d="M166,0L1240,1400h198L366,0H166ZM306,628q-78,0-141,19.5T52,700l68,172q39-30 81-50t97-20q54,0 87,21.5T418,888q0,33-25,53.5T312,962H250l28,154h64q47,0 75.5,19.5T446,1192q0,27-17.5,44.5T370,1254q-48,0-94.5-17.5T184,1190l18,182q54,26 117.5,41T450,1428q102,0 156-49t54-127q0-81-47.5-137T490,1032l4,24q57-18 91.5-56T620,896q0-79-43-139.5T462.5,662T306,628ZM1310,0H1140l118,632l52-42L1010,250l-64,54h516l-26-144H760l520,584h162L1310,0Z" />
      <glyph unicode="&#xbf;" glyph-name="gid175" horiz-adv-x="942" d="M728,586l-3-20q-12-77-44.5-135T601,326t-99-92q-56-48-104-92T321,49.5T292-60q0-59 41-90.5T446-182q81,0 153.5,21.5T746-106L734-342q-86-38-177.5-62T342-428q-165,0-253.5,80T0-140Q0-51 36,22.5t95,136T258,278q54,45 96.5,86.5t70,87T461,554l5,32H728Zm74,414L754,728H494l48,272H802Z" />
      <glyph unicode="&#xc0;" glyph-name="gid6" horiz-adv-x="1214" d="M-86,0L638,1400H878L1108,0H842L785,354L746,570l-76,540l67-11L477,572L359,352L180,0H-86ZM266,338L398,586H810l44-248H266ZM956,1540L606,1692l40,230l338-224l-28-158Z" />
      <glyph unicode="&#xc1;" glyph-name="gid2" horiz-adv-x="1214" d="M-86,0L638,1400H878L1108,0H842L785,354L746,570l-76,540l67-11L477,572L359,352L180,0H-86ZM266,338L398,586H810l44-248H266ZM590,1540l34,166l404,216l-38-250L590,1540Z" />
      <glyph unicode="&#xc2;" glyph-name="gid4" horiz-adv-x="1214" d="M-86,0L638,1400H878L1108,0H842L785,354L746,570l-76,540l67-11L477,572L359,352L180,0H-86ZM266,338L398,586H810l44-248H266ZM542,1532l34,162l264,196l220-224l-32-158L798,1674L542,1532Z" />
      <glyph unicode="&#xc3;" glyph-name="gid8" horiz-adv-x="1214" d="M-86,0L638,1400H878L1108,0H842L785,354L746,570l-76,540l67-11L477,572L359,352L180,0H-86ZM266,338L398,586H810l44-248H266ZM956,1556q-44,0-92.5,21.5t-95,43T684,1642q-34,0-56-19t-28-51H444q17,119 71.5,180.5T652,1814q48,0 94.5-21.5t89.5-43t80-21.5q30,0 50,18.5t26,57.5h164q-19-127-69-187.5T956,1556Z" />
      <glyph unicode="&#xc4;" glyph-name="gid5" horiz-adv-x="1214" d="M-86,0L638,1400H878L1108,0H842L785,354L746,570l-76,540l67-11L477,572L359,352L180,0H-86ZM266,338L398,586H810l44-248H266ZM486,1582l36,180H710l-36-180H486Zm396,0l36,180h188l-36-180H882Z" />
      <glyph unicode="&#xc5;" glyph-name="gid7" horiz-adv-x="1214" d="M-86,0L638,1400H878L1108,0H842L785,354L746,570l-76,540l67-11L477,572L359,352L180,0H-86ZM266,338L398,586H810l44-248H266ZM772,1540q-82,0-126,45t-44,111q0,64 34,117t90,85t122,32q83,0 126.5-45t43.5-111t-34-119t-90-84t-122-31Zm20,104q44,0 74,32.5t30,77.5q0,32-19,51t-49,19q-42,0-73-33t-31-77q0-31 18.5-50.5T792,1644Z" />
      <glyph unicode="&#xc6;" glyph-name="gid9" horiz-adv-x="1686" d="M-112,0L790,1400h952l-44-248H1019l135,113L954,135L859,248h697L1512,0H674L896,1259l41-15L156,0H-112ZM272,338L434,586H834L790,338H272ZM972,606l44,248h500l-44-248H972Z" />
      <glyph unicode="&#xc7;" glyph-name="gid12" horiz-adv-x="1186" d="M640-28Q469-28 344.5,44T152,250.5T84,574q0,185 63,341t174.5,271T580,1364.5T894,1428q99,0 198-22t166-60l-72-244q-60,27-144,53.5T860,1182q-122,0-214.5-47T491,1007T397.5,820.5T366,598q0-113 32-198.5T501.5,266T692,218q86,0 177,23.5T1044,298L1030,54Q949,17 842.5-5.5T640-28Zm-2-130l-72,30q27,9 53.5,14.5T674-108q72,0 113-37.5T828-252q0-100-75.5-163T564-478q-52,0-91.5,11.5T406-440l60,118q29-15 58.5-24.5T590-356q51,0 79.5,21.5T698-280q0,60-92,60q-24,0-47.5-3T506-234L604,0H714L638-158Z" />
      <glyph unicode="&#xc8;" glyph-name="gid19" horiz-adv-x="1110" d="M338,135L243,248H982L938,0H52L298,1400h868l-44-248H403l135,113L338,135Zm52,719H932L888,606H346l44,248Zm556,686L596,1692l40,230l338-224l-28-158Z" />
      <glyph unicode="&#xc9;" glyph-name="gid16" horiz-adv-x="1110" d="M338,135L243,248H982L938,0H52L298,1400h868l-44-248H403l135,113L338,135Zm52,719H932L888,606H346l44,248Zm190,686l34,166l404,216l-38-250L580,1540Z" />
      <glyph unicode="&#xca;" glyph-name="gid17" horiz-adv-x="1110" d="M338,135L243,248H982L938,0H52L298,1400h868l-44-248H403l135,113L338,135Zm52,719H932L888,606H346l44,248Zm142,678l34,162l264,196l220-224l-32-158L788,1674L532,1532Z" />
      <glyph unicode="&#xcb;" glyph-name="gid18" horiz-adv-x="1110" d="M338,135L243,248H982L938,0H52L298,1400h868l-44-248H403l135,113L338,135Zm52,719H932L888,606H346l44,248Zm86,728l36,180H700l-36-180H476Zm396,0l36,180h188l-36-180H872Z" />
      <glyph unicode="&#xcc;" glyph-name="gid28" horiz-adv-x="566" d="M52,0L298,1400H554L308,0H52ZM642,1540L292,1692l40,230l338-224l-28-158Z" />
      <glyph unicode="&#xcd;" glyph-name="gid25" horiz-adv-x="566" d="M52,0L298,1400H554L308,0H52ZM276,1540l34,166l404,216l-38-250L276,1540Z" />
      <glyph unicode="&#xce;" glyph-name="gid26" horiz-adv-x="566" d="M52,0L298,1400H554L308,0H52ZM228,1532l34,162l264,196l220-224l-32-158L484,1674L228,1532Z" />
      <glyph unicode="&#xcf;" glyph-name="gid27" horiz-adv-x="566" d="M52,0L298,1400H554L308,0H52ZM172,1582l36,180H396l-36-180H172Zm396,0l36,180H792l-36-180H568Z" />
      <glyph unicode="&#xd0;" glyph-name="gid14" horiz-adv-x="1432" d="M78,0L324,1400H830q167,0 291.5-68T1315,1137t69-305q0-190-62.5-343.5t-173-263T893,58T582,0H78ZM358,133L263,246H626q155,0 260.5,73.5T1046,520t54,288q0,159-77.5,252.5T786,1154H423l135,113L358,133ZM56,618L90,806H732L700,618H56Z" />
      <glyph unicode="&#xd1;" glyph-name="gid34" horiz-adv-x="1376" d="M52,0L298,1400H548L995,391l-67-8l180,1017h256L1116,0H908L431,1065l67,8L308,0H52Zm960,1554q-44,0-89,19t-87,38t-78,19q-25,0-42.5-15T692,1568H540q20,102 69.5,156T740,1778q43,0 87-19t85.5-38t77.5-19q26,0 43,16t23,50h152q-16-106-66-160t-130-54Z" />
      <glyph unicode="&#xd2;" glyph-name="gid39" horiz-adv-x="1484" d="M642-28Q471-28 345.5,44T152,251T84,574q0,184 63,339.5t174,271T576,1364t306,64q171,0 296-72t193.5-207T1440,826q0-184-63-339.5t-174-271T948,36T642-28Zm40,246q112,0 200,48t149,130.5T1124,584t32,220q0,116-34,201t-104,131t-178,46q-112,0-200-48T491,1003.5T398,816T366,596q0-116 34-201T504,264t178-46Zm424,1322L756,1692l40,230l338-224l-28-158Z" />
      <glyph unicode="&#xd3;" glyph-name="gid36" horiz-adv-x="1484" d="M642-28Q471-28 345.5,44T152,251T84,574q0,184 63,339.5t174,271T576,1364t306,64q171,0 296-72t193.5-207T1440,826q0-184-63-339.5t-174-271T948,36T642-28Zm40,246q112,0 200,48t149,130.5T1124,584t32,220q0,116-34,201t-104,131t-178,46q-112,0-200-48T491,1003.5T398,816T366,596q0-116 34-201T504,264t178-46Zm58,1322l34,166l404,216l-38-250L740,1540Z" />
      <glyph unicode="&#xd4;" glyph-name="gid37" horiz-adv-x="1484" d="M642-28Q471-28 345.5,44T152,251T84,574q0,184 63,339.5t174,271T576,1364t306,64q171,0 296-72t193.5-207T1440,826q0-184-63-339.5t-174-271T948,36T642-28Zm40,246q112,0 200,48t149,130.5T1124,584t32,220q0,116-34,201t-104,131t-178,46q-112,0-200-48T491,1003.5T398,816T366,596q0-116 34-201T504,264t178-46Zm10,1314l34,162l264,196l220-224l-32-158L948,1674L692,1532Z" />
      <glyph unicode="&#xd5;" glyph-name="gid41" horiz-adv-x="1484" d="M642-28Q471-28 345.5,44T152,251T84,574q0,184 63,339.5t174,271T576,1364t306,64q171,0 296-72t193.5-207T1440,826q0-184-63-339.5t-174-271T948,36T642-28Zm40,246q112,0 200,48t149,130.5T1124,584t32,220q0,116-34,201t-104,131t-178,46q-112,0-200-48T491,1003.5T398,816T366,596q0-116 34-201T504,264t178-46Zm424,1338q-44,0-92.5,21.5t-95,43T834,1642q-34,0-56-19t-28-51H594q17,119 71.5,180.5T802,1814q48,0 94.5-21.5t89.5-43t80-21.5q30,0 50,18.5t26,57.5h164q-19-127-69-187.5T1106,1556Z" />
      <glyph unicode="&#xd6;" glyph-name="gid38" horiz-adv-x="1484" d="M642-28Q471-28 345.5,44T152,251T84,574q0,184 63,339.5t174,271T576,1364t306,64q171,0 296-72t193.5-207T1440,826q0-184-63-339.5t-174-271T948,36T642-28Zm40,246q112,0 200,48t149,130.5T1124,584t32,220q0,116-34,201t-104,131t-178,46q-112,0-200-48T491,1003.5T398,816T366,596q0-116 34-201T504,264t178-46ZM636,1582l36,180H860l-36-180H636Zm396,0l36,180h188l-36-180H1032Z" />
      <glyph unicode="&#xd7;" glyph-name="gid217" horiz-adv-x="930" d="M130,186L12,328L712,922L830,780L130,186ZM744,312L598,190L100,796L246,918L744,312Z" />
      <glyph unicode="&#xd8;" glyph-name="gid40" horiz-adv-x="1484" d="M1258,1488h204L250-88H48L1258,1488ZM642-28Q471-28 345.5,44T152,251T84,574q0,184 63,339.5t174,271T576,1364t306,64q171,0 296-72t193.5-207T1440,826q0-184-63-339.5t-174-271T948,36T642-28Zm40,246q112,0 200,48t149,130.5T1124,584t32,220q0,116-34,201t-104,131t-178,46q-112,0-200-48T491,1003.5T398,816T366,596q0-116 34-201T504,264t178-46Z" />
      <glyph unicode="&#xd9;" glyph-name="gid53" horiz-adv-x="1390" d="M588-28Q353-28 239.5,92.5T126,424q0,25 3.5,75.5T142,600l142,800H538L412,686q-8-47-14.5-100.5T392,490q1-80 22.5-141.5t73-96T630,218q96,0 162.5,38T902,359.5T971.5,509T1014,686l126,714h256L1254,600q-33-187-117-328.5T916,51T588-28Zm460,1568L698,1692l40,230l338-224l-28-158Z" />
      <glyph unicode="&#xda;" glyph-name="gid50" horiz-adv-x="1390" d="M588-28Q353-28 239.5,92.5T126,424q0,25 3.5,75.5T142,600l142,800H538L412,686q-8-47-14.5-100.5T392,490q1-80 22.5-141.5t73-96T630,218q96,0 162.5,38T902,359.5T971.5,509T1014,686l126,714h256L1254,600q-33-187-117-328.5T916,51T588-28Zm94,1568l34,166l404,216l-38-250L682,1540Z" />
      <glyph unicode="&#xdb;" glyph-name="gid51" horiz-adv-x="1390" d="M588-28Q353-28 239.5,92.5T126,424q0,25 3.5,75.5T142,600l142,800H538L412,686q-8-47-14.5-100.5T392,490q1-80 22.5-141.5t73-96T630,218q96,0 162.5,38T902,359.5T971.5,509T1014,686l126,714h256L1254,600q-33-187-117-328.5T916,51T588-28Zm46,1560l34,162l264,196l220-224l-32-158L890,1674L634,1532Z" />
      <glyph unicode="&#xdc;" glyph-name="gid52" horiz-adv-x="1390" d="M588-28Q353-28 239.5,92.5T126,424q0,25 3.5,75.5T142,600l142,800H538L412,686q-8-47-14.5-100.5T392,490q1-80 22.5-141.5t73-96T630,218q96,0 162.5,38T902,359.5T971.5,509T1014,686l126,714h256L1254,600q-33-187-117-328.5T916,51T588-28ZM578,1582l36,180H802l-36-180H578Zm396,0l36,180h188l-36-180H974Z" />
      <glyph unicode="&#xdd;" glyph-name="gid58" horiz-adv-x="1206" d="M366,0L494,733l25-219L146,1400H418L689,733L577,748l485,652h272L659,529l91,204L620,0H366ZM586,1540l34,166l404,216l-38-250L586,1540Z" />
      <glyph unicode="&#xde;" glyph-name="gid44" horiz-adv-x="1074" d="M32,0L280,1400H534L286,0H32ZM258,330l38,214H574q128,0 191,53t63,155q0,48-19.5,80t-62,48T636,896H358l38,214H706q192,0 290-84t98-236q0-145-65-248T845.5,384.5T568,330H258Z" />
      <glyph unicode="&#xdf;" glyph-name="gid109" horiz-adv-x="1262" d="M638-28q-52,0-98,4.5T444-10l36,204q48-9 96-13.5T676,176q98,0 167,47.5T912,364q0,56-29,94.5t-72,68t-86,59t-72,67T624,746q0,69 49,130t127,128q71,60 108.5,103T946,1210q0,53-41.5,83.5T782,1324q-117,0-185.5-69T506,1064L318,0H68L208,796H76l58,204H244l10,60q27,159 107.5,263T561,1477.5T822,1528q176,0 278-70.5T1202,1262q0-99-46.5-162.5T1034,970q-55-49-101.5-91T886,786q0-41 28.5-71.5T985,655t84-65t70.5-87T1168,378q0-96-44-171.5T1005,79T835-0.5T638-28Z" />
      <glyph unicode="&#xe0;" glyph-name="gid65" horiz-adv-x="1168" d="M406-20Q290-20 207,34T80,182T36,396q0,117 38.5,227.5T186.5,823T364,964t234,52q69,0 119-17t89.5-48.5T881,875l-94-52l71,177h216L958,316q-8-48-8-76q0-42 21.5-49t76.5-7L992-20q-94,0-147,7.5t-82,28t-50,59T662,174l83-37q-37-34-83-70.5T554,5T406-20Zm84,204q83,0 136,40t82,103t40.5,131.5T760,584q0,105-42,166.5T580,812q-85,0-149.5-52T330,620.5T294,428q0-109 46.5-176.5T490,184Zm388,956L528,1292l40,230l338-224l-28-158Z" />
      <glyph unicode="&#xe1;" glyph-name="gid62" horiz-adv-x="1168" d="M406-20Q290-20 207,34T80,182T36,396q0,117 38.5,227.5T186.5,823T364,964t234,52q69,0 119-17t89.5-48.5T881,875l-94-52l71,177h216L958,316q-8-48-8-76q0-42 21.5-49t76.5-7L992-20q-94,0-147,7.5t-82,28t-50,59T662,174l83-37q-37-34-83-70.5T554,5T406-20Zm84,204q83,0 136,40t82,103t40.5,131.5T760,584q0,105-42,166.5T580,812q-85,0-149.5-52T330,620.5T294,428q0-109 46.5-176.5T490,184Zm22,956l34,166l404,216l-38-250L512,1140Z" />
      <glyph unicode="&#xe2;" glyph-name="gid63" horiz-adv-x="1168" d="M406-20Q290-20 207,34T80,182T36,396q0,117 38.5,227.5T186.5,823T364,964t234,52q69,0 119-17t89.5-48.5T881,875l-94-52l71,177h216L958,316q-8-48-8-76q0-42 21.5-49t76.5-7L992-20q-94,0-147,7.5t-82,28t-50,59T662,174l83-37q-37-34-83-70.5T554,5T406-20Zm84,204q83,0 136,40t82,103t40.5,131.5T760,584q0,105-42,166.5T580,812q-85,0-149.5-52T330,620.5T294,428q0-109 46.5-176.5T490,184Zm-26,948l34,162l264,196l220-224l-32-158L720,1274L464,1132Z" />
      <glyph unicode="&#xe3;" glyph-name="gid67" horiz-adv-x="1168" d="M406-20Q290-20 207,34T80,182T36,396q0,117 38.5,227.5T186.5,823T364,964t234,52q69,0 119-17t89.5-48.5T881,875l-94-52l71,177h216L958,316q-8-48-8-76q0-42 21.5-49t76.5-7L992-20q-94,0-147,7.5t-82,28t-50,59T662,174l83-37q-37-34-83-70.5T554,5T406-20Zm84,204q83,0 136,40t82,103t40.5,131.5T760,584q0,105-42,166.5T580,812q-85,0-149.5-52T330,620.5T294,428q0-109 46.5-176.5T490,184Zm388,972q-44,0-92.5,21.5t-95,43T606,1242q-34,0-56-19t-28-51H366q17,119 71.5,180.5T574,1414q48,0 94.5-21.5t89.5-43t80-21.5q30,0 50,18.5t26,57.5h164q-19-127-69-187.5T878,1156Z" />
      <glyph unicode="&#xe4;" glyph-name="gid64" horiz-adv-x="1168" d="M406-20Q290-20 207,34T80,182T36,396q0,117 38.5,227.5T186.5,823T364,964t234,52q69,0 119-17t89.5-48.5T881,875l-94-52l71,177h216L958,316q-8-48-8-76q0-42 21.5-49t76.5-7L992-20q-94,0-147,7.5t-82,28t-50,59T662,174l83-37q-37-34-83-70.5T554,5T406-20Zm84,204q83,0 136,40t82,103t40.5,131.5T760,584q0,105-42,166.5T580,812q-85,0-149.5-52T330,620.5T294,428q0-109 46.5-176.5T490,184Zm-82,998l36,180H632l-36-180H408Zm396,0l36,180h188l-36-180H804Z" />
      <glyph unicode="&#xe5;" glyph-name="gid66" horiz-adv-x="1168" d="M406-20Q290-20 207,34T80,182T36,396q0,117 38.5,227.5T186.5,823T364,964t234,52q69,0 119-17t89.5-48.5T881,875l-94-52l71,177h216L958,316q-8-48-8-76q0-42 21.5-49t76.5-7L992-20q-94,0-147,7.5t-82,28t-50,59T662,174l83-37q-37-34-83-70.5T554,5T406-20Zm84,204q83,0 136,40t82,103t40.5,131.5T760,584q0,105-42,166.5T580,812q-85,0-149.5-52T330,620.5T294,428q0-109 46.5-176.5T490,184Zm204,956q-82,0-126,45t-44,111q0,64 34,117t90,85t122,32q83,0 126.5-45T940,1374t-34-119t-90-84t-122-31Zm20,104q44,0 74,32.5t30,77.5q0,32-19,51t-49,19q-42,0-73-33t-31-77q0-31 18.5-50.5T714,1244Z" />
      <glyph unicode="&#xe6;" glyph-name="gid68" horiz-adv-x="1536" d="M598,460q-51,1-111-9.5T373,416t-88.5-63.5T250,256q0-43 26.5-68.5T342,162q40,0 87,27t85,81t52,134q2,9 3.5,23t4.5,38.5t7,62.5t9,95q12,89-12.5,134T454,802q-66,0-131-18.5T172,726l14,202q95,44 188.5,66T556,1016q71,0 121.5-13t82-44.5t45.5-87T819,732l-19,60q0,48 51.5,100T988,980t184,36q144,0 230-94t86-252q0-54-10.5-102T1438,446H718l34,168h510q3,14 3.5,26.5T1266,666q0,56-29,101t-109,45q-67,0-121.5-30t-93-82t-59-117.5T834,446q0-103 34.5-160T954,206.5T1056,184q45,0 103,11.5t115,30t98,40.5L1344,56q-58-30-145-53T1010-20Q837-20 746.5,51.5T647,232l66-7Q651,156 585.5,98T440.5,5T256-30Q123-30 52.5,33T-18,204q0,107 44.5,180.5T143.5,505T301,578t167,37t144,14L598,460Z" />
      <glyph unicode="&#xe7;" glyph-name="gid71" horiz-adv-x="874" d="M432-20Q290-20 203,37T76,189.5T36,402q0,118 38,228T186,827T369,965t251,51q93,0 155.5-21T880,942L822,730q-45,36-96,59T618,812q-100,0-172.5-52t-112-139.5T294,428q0-109 50-176.5T508,184q107,0 232,82L724,54Q670,20 596,0T432-20ZM422-158l-72,30q27,9 53.5,14.5T458-108q72,0 113-37.5T612-252q0-100-75.5-163T348-478q-52,0-91.5,11.5T190-440l60,118q29-15 58.5-24.5T374-356q51,0 79.5,21.5T482-280q0,60-92,60q-24,0-47.5-3T290-234L388,0H498L422-158Z" />
      <glyph unicode="&#xe8;" glyph-name="gid78" horiz-adv-x="976" d="M284,575q35-9 62.5-12t61.5-3q122,0 189.5,22.5t94,58T718,714q0,45-24.5,66t-55,26.5T590,812q-81,0-139-45T358.5,662T313,557L295,433q1-92 34.5-146.5T416,208t110-24q90,0 170,24t144,58L812,56Q751,23 665.5,1.5T478-20Q326-20 228,37.5T83,192.5T36,410q0,115 40,223T190,827.5T368,965t232,51q159,0 242.5-79.5T926,726q0-91-39-154T780.5,470.5T627.5,415T448,398q-55,0-102,5t-77,13l15,159Zm544,565L478,1292l40,230l338-224l-28-158Z" />
      <glyph unicode="&#xe9;" glyph-name="gid75" horiz-adv-x="976" d="M284,575q35-9 62.5-12t61.5-3q122,0 189.5,22.5t94,58T718,714q0,45-24.5,66t-55,26.5T590,812q-81,0-139-45T358.5,662T313,557L295,433q1-92 34.5-146.5T416,208t110-24q90,0 170,24t144,58L812,56Q751,23 665.5,1.5T478-20Q326-20 228,37.5T83,192.5T36,410q0,115 40,223T190,827.5T368,965t232,51q159,0 242.5-79.5T926,726q0-91-39-154T780.5,470.5T627.5,415T448,398q-55,0-102,5t-77,13l15,159Zm178,565l34,166l404,216l-38-250L462,1140Z" />
      <glyph unicode="&#xea;" glyph-name="gid76" horiz-adv-x="976" d="M284,575q35-9 62.5-12t61.5-3q122,0 189.5,22.5t94,58T718,714q0,45-24.5,66t-55,26.5T590,812q-81,0-139-45T358.5,662T313,557L295,433q1-92 34.5-146.5T416,208t110-24q90,0 170,24t144,58L812,56Q751,23 665.5,1.5T478-20Q326-20 228,37.5T83,192.5T36,410q0,115 40,223T190,827.5T368,965t232,51q159,0 242.5-79.5T926,726q0-91-39-154T780.5,470.5T627.5,415T448,398q-55,0-102,5t-77,13l15,159Zm130,557l34,162l264,196l220-224l-32-158L670,1274L414,1132Z" />
      <glyph unicode="&#xeb;" glyph-name="gid77" horiz-adv-x="976" d="M284,575q35-9 62.5-12t61.5-3q122,0 189.5,22.5t94,58T718,714q0,45-24.5,66t-55,26.5T590,812q-81,0-139-45T358.5,662T313,557L295,433q1-92 34.5-146.5T416,208t110-24q90,0 170,24t144,58L812,56Q751,23 665.5,1.5T478-20Q326-20 228,37.5T83,192.5T36,410q0,115 40,223T190,827.5T368,965t232,51q159,0 242.5-79.5T926,726q0-91-39-154T780.5,470.5T627.5,415T448,398q-55,0-102,5t-77,13l15,159Zm74,607l36,180H582l-36-180H358Zm396,0l36,180H978l-36-180H754Z" />
      <glyph unicode="&#xec;" glyph-name="gid88" horiz-adv-x="484" d="M14,0L190,1000H438L262,0H14ZM526,1140L176,1292l40,230l338-224l-28-158Z" />
      <glyph unicode="&#xed;" glyph-name="gid84" horiz-adv-x="484" d="M14,0L190,1000H438L262,0H14ZM160,1140l34,166l404,216l-38-250L160,1140Z" />
      <glyph unicode="&#xee;" glyph-name="gid85" horiz-adv-x="484" d="M14,0L190,1000H438L262,0H14Zm98,1132l34,162l264,196l220-224l-32-158L368,1274L112,1132Z" />
      <glyph unicode="&#xef;" glyph-name="gid86" horiz-adv-x="484" d="M14,0L190,1000H438L262,0H14ZM56,1182l36,180H280l-36-180H56Zm396,0l36,180H676l-36-180H452Z" />
      <glyph unicode="&#xf0;" glyph-name="gid73" horiz-adv-x="1000" d="M396-26Q279-26 190.5,22T53,155T4,350Q4,480 60.5,594.5T221,780.5T468,852q80,0 135.5-26.5t90.5-68T745,671l-32-23q18,132-22,257T564.5,1130.5T356,1288l76,114q133-62 245-166.5t179.5-252T924,644q0-193-62.5-344.5T681,61T396-26Zm30,202q52,0 106.5,28t92,88T662,448q0,98-43.5,154T488,658q-77,0-132-42T271.5,509T242,374q0-87 47-142.5T426,176ZM370,966l-64,134l556,238l62-134L370,966Z" />
      <glyph unicode="&#xf1;" glyph-name="gid95" horiz-adv-x="1072" d="M14,0L190,1000H408l15-88L262,0H14ZM612,0q31,174 50.5,288T693,470t16,103t6,49t1,22q0,87-33.5,127.5T574,812q-61,0-106.5-26T378,713l28,219q53,35 115.5,59.5T668,1016q155,0 228.5-94.5T970,678q0-12-1.5-30T962,592T945,482.5T913,294T862,0H612ZM834,1136q-44,0-92.5,21.5t-95,43T562,1222q-34,0-56-19t-28-51H322q17,119 71.5,180.5T530,1394q48,0 94.5-21.5t89.5-43t80-21.5q30,0 50,18.5t26,57.5h164q-19-127-69-187.5T834,1136Z" />
      <glyph unicode="&#xf2;" glyph-name="gid100" horiz-adv-x="1098" d="M448-20Q309-20 217,38.5T79.5,194.5T34,410T77,636.5t121,194T383,966t235,50q139,0 231-58.5t137.5-156T1032,586T989,359.5t-121-194T683,30T448-20Zm34,204q87,0 153.5,53T739,377.5T776,568q0,114-48.5,179T584,812q-86,0-152.5-52t-104-139T290,430q0-114 48-180t144-66Zm366,956L498,1292l40,230l338-224l-28-158Z" />
      <glyph unicode="&#xf3;" glyph-name="gid97" horiz-adv-x="1098" d="M448-20Q309-20 217,38.5T79.5,194.5T34,410T77,636.5t121,194T383,966t235,50q139,0 231-58.5t137.5-156T1032,586T989,359.5t-121-194T683,30T448-20Zm34,204q87,0 153.5,53T739,377.5T776,568q0,114-48.5,179T584,812q-86,0-152.5-52t-104-139T290,430q0-114 48-180t144-66Zm0,956l34,166l404,216l-38-250L482,1140Z" />
      <glyph unicode="&#xf4;" glyph-name="gid98" horiz-adv-x="1098" d="M448-20Q309-20 217,38.5T79.5,194.5T34,410T77,636.5t121,194T383,966t235,50q139,0 231-58.5t137.5-156T1032,586T989,359.5t-121-194T683,30T448-20Zm34,204q87,0 153.5,53T739,377.5T776,568q0,114-48.5,179T584,812q-86,0-152.5-52t-104-139T290,430q0-114 48-180t144-66Zm-48,948l34,162l264,196l220-224l-32-158L690,1274L434,1132Z" />
      <glyph unicode="&#xf5;" glyph-name="gid102" horiz-adv-x="1098" d="M448-20Q309-20 217,38.5T79.5,194.5T34,410T77,636.5t121,194T383,966t235,50q139,0 231-58.5t137.5-156T1032,586T989,359.5t-121-194T683,30T448-20Zm34,204q87,0 153.5,53T739,377.5T776,568q0,114-48.5,179T584,812q-86,0-152.5-52t-104-139T290,430q0-114 48-180t144-66Zm366,972q-44,0-92.5,21.5t-95,43T576,1242q-34,0-56-19t-28-51H336q17,119 71.5,180.5T544,1414q48,0 94.5-21.5t89.5-43t80-21.5q30,0 50,18.5t26,57.5h164q-19-127-69-187.5T848,1156Z" />
      <glyph unicode="&#xf6;" glyph-name="gid99" horiz-adv-x="1098" d="M448-20Q309-20 217,38.5T79.5,194.5T34,410T77,636.5t121,194T383,966t235,50q139,0 231-58.5t137.5-156T1032,586T989,359.5t-121-194T683,30T448-20Zm34,204q87,0 153.5,53T739,377.5T776,568q0,114-48.5,179T584,812q-86,0-152.5-52t-104-139T290,430q0-114 48-180t144-66ZM378,1182l36,180H602l-36-180H378Zm396,0l36,180H998l-36-180H774Z" />
      <glyph unicode="&#xf7;" glyph-name="gid218" horiz-adv-x="948" d="M12,460L44,648H848L816,460H12ZM232,88l44,252H508L464,88H232ZM352,768l44,252H628L584,768H352Z" />
      <glyph unicode="&#xf8;" glyph-name="gid101" horiz-adv-x="1098" d="M872,1060h174L204-80H30L872,1060ZM448-20Q309-20 217,38.5T79.5,194.5T34,410T77,636.5t121,194T383,966t235,50q139,0 231-58.5t137.5-156T1032,586T989,359.5t-121-194T683,30T448-20Zm34,204q87,0 153.5,53T739,377.5T776,568q0,114-48.5,179T584,812q-86,0-152.5-52t-104-139T290,430q0-114 48-180t144-66Z" />
      <glyph unicode="&#xf9;" glyph-name="gid115" horiz-adv-x="1082" d="M392-20Q229-20 149.5,73T70,322q0,28 3.5,60.5T84,454l94,546H426L336,472q-7-40-10.5-66T322,356q0-168 148-168q62,0 110.5,25.5T670,285L649,84Q592,38 532,9T392-20ZM626,0l29,256l133,744h248L860,0H626ZM820,1140L470,1292l40,230l338-224l-28-158Z" />
      <glyph unicode="&#xfa;" glyph-name="gid112" horiz-adv-x="1082" d="M392-20Q229-20 149.5,73T70,322q0,28 3.5,60.5T84,454l94,546H426L336,472q-7-40-10.5-66T322,356q0-168 148-168q62,0 110.5,25.5T670,285L649,84Q592,38 532,9T392-20ZM626,0l29,256l133,744h248L860,0H626ZM454,1140l34,166l404,216l-38-250L454,1140Z" />
      <glyph unicode="&#xfb;" glyph-name="gid113" horiz-adv-x="1082" d="M392-20Q229-20 149.5,73T70,322q0,28 3.5,60.5T84,454l94,546H426L336,472q-7-40-10.5-66T322,356q0-168 148-168q62,0 110.5,25.5T670,285L649,84Q592,38 532,9T392-20ZM626,0l29,256l133,744h248L860,0H626ZM406,1132l34,162l264,196l220-224l-32-158L662,1274L406,1132Z" />
      <glyph unicode="&#xfc;" glyph-name="gid114" horiz-adv-x="1082" d="M392-20Q229-20 149.5,73T70,322q0,28 3.5,60.5T84,454l94,546H426L336,472q-7-40-10.5-66T322,356q0-168 148-168q62,0 110.5,25.5T670,285L649,84Q592,38 532,9T392-20ZM626,0l29,256l133,744h248L860,0H626ZM350,1182l36,180H574l-36-180H350Zm396,0l36,180H970l-36-180H746Z" />
      <glyph unicode="&#xfd;" glyph-name="gid120" horiz-adv-x="1046" d="M-6-484L361,166L332-46L68,1000H344L490,243l-78,13l418,744h276L240-484H-6ZM434,1140l34,166l404,216l-38-250L434,1140Z" />
      <glyph unicode="&#xfe;" glyph-name="gid105" horiz-adv-x="1120" d="M-72-484L278,1500H526L404,811l-37,68q67,58 147,97.5T700,1016q112,0 190.5-52.5t120-147.5T1052,594q0-137-34.5-250t-100-194.5T760,24T552-20Q427-20 353.5,37.5T250,168l50,57L176-484H-72ZM532,184q79,0 138.5,49.5T763,370t33,200q0,108-41,175T622,812T463.5,757.5t-102-146T326,408q0-108 50-166t156-58Z" />
      <glyph unicode="&#xff;" glyph-name="gid121" horiz-adv-x="1046" d="M-6-484L361,166L332-46L68,1000H344L490,243l-78,13l418,744h276L240-484H-6ZM330,1182l36,180H554l-36-180H330Zm396,0l36,180H950l-36-180H726Z" />
      <glyph unicode="&#x2013;" glyph-name="gid190" horiz-adv-x="1312" d="M0,528L34,716H1312l-34-188H0Z" />
      <glyph unicode="&#x2014;" glyph-name="gid189" horiz-adv-x="1498" d="M0,528L34,716H1498l-32-188H0Z" />
      <glyph unicode="&#x2018;" glyph-name="gid200" horiz-adv-x="416" d="M360,1400H476L346,1160H448L400,888H140l44,248l176,264Z" />
      <glyph unicode="&#x2019;" glyph-name="gid201" horiz-adv-x="401" d="M256,888H140l130,240H168l48,272H476l-44-248L256,888Z" />
      <glyph unicode="&#x201a;" glyph-name="gid202" horiz-adv-x="400" d="M60-240H-56L74,0H-28L20,272H280L236,24L60-240Z" />
      <glyph unicode="&#x201c;" glyph-name="gid198" horiz-adv-x="796" d="M365,1426H481L351,1186H453L405,914H145l44,248l176,264Zm380,0H861L731,1186H833L785,914H525l44,248l176,264Z" />
      <glyph unicode="&#x201d;" glyph-name="gid199" horiz-adv-x="781" d="M256,888H140l130,240H168l48,272H476l-44-248L256,888Zm380,0H520l130,240H548l48,272H856l-44-248L636,888Z" />
      <glyph unicode="&#x201e;" glyph-name="gid197" horiz-adv-x="780" d="M60-240H-56L74,0H-28L20,272H280L236,24L60-240Zm380,0H324L454,0H352l48,272H660L616,24L440-240Z" />
      <glyph unicode="&#x2022;" glyph-name="gid166" horiz-adv-x="584" d="M246,338q-76,0-125,54T72,524q0,67 36.5,124t94,91.5T324,774q77,0 125.5-54T498,588q0-67-36.5-124t-94-91.5T246,338Z" />
      <glyph unicode="&#x2039;" glyph-name="gid195" horiz-adv-x="686" d="M242,156L24,568L386,980H680L242,481l22,189L536,156H242Z" />
      <glyph unicode="&#x203a;" glyph-name="gid196" horiz-adv-x="686" d="M-2,156L436,655L413,466L144,980H438L654,568L292,156H-2Z" />
    </font>
</defs>
</svg>
